<svg width="26" height="27" viewBox="0 0 26 27" fill="none" xmlns="http://www.w3.org/2000/svg">
<path d="M6.33685 19.2375C7.25768 18.5063 8.28685 17.9297 9.42435 17.5078C10.5618 17.0859 11.7535 16.875 12.9993 16.875C14.2452 16.875 15.4368 17.0859 16.5743 17.5078C17.7118 17.9297 18.741 18.5063 19.6618 19.2375C20.2938 18.4688 20.7858 17.5969 21.1379 16.6219C21.49 15.6469 21.666 14.6062 21.666 13.5C21.666 11.0062 20.8219 8.88281 19.1337 7.12969C17.4455 5.37656 15.4007 4.5 12.9993 4.5C10.598 4.5 8.55317 5.37656 6.86497 7.12969C5.17678 8.88281 4.33268 11.0062 4.33268 13.5C4.33268 14.6062 4.50872 15.6469 4.86081 16.6219C5.21289 17.5969 5.7049 18.4688 6.33685 19.2375ZM12.9993 14.625C11.9341 14.625 11.0358 14.2453 10.3046 13.4859C9.57331 12.7266 9.20768 11.7937 9.20768 10.6875C9.20768 9.58125 9.57331 8.64844 10.3046 7.88906C11.0358 7.12969 11.9341 6.75 12.9993 6.75C14.0646 6.75 14.9629 7.12969 15.6941 7.88906C16.4254 8.64844 16.791 9.58125 16.791 10.6875C16.791 11.7937 16.4254 12.7266 15.6941 13.4859C14.9629 14.2453 14.0646 14.625 12.9993 14.625ZM12.9993 24.75C11.5007 24.75 10.0924 24.4547 8.77435 23.8641C7.45629 23.2734 6.30977 22.4719 5.33477 21.4594C4.35977 20.4469 3.58789 19.2563 3.01914 17.8875C2.45039 16.5188 2.16602 15.0562 2.16602 13.5C2.16602 11.9438 2.45039 10.4812 3.01914 9.1125C3.58789 7.74375 4.35977 6.55312 5.33477 5.54062C6.30977 4.52812 7.45629 3.72656 8.77435 3.13594C10.0924 2.54531 11.5007 2.25 12.9993 2.25C14.498 2.25 15.9063 2.54531 17.2243 3.13594C18.5424 3.72656 19.6889 4.52812 20.6639 5.54062C21.6389 6.55312 22.4108 7.74375 22.9796 9.1125C23.5483 10.4812 23.8327 11.9438 23.8327 13.5C23.8327 15.0562 23.5483 16.5188 22.9796 17.8875C22.4108 19.2563 21.6389 20.4469 20.6639 21.4594C19.6889 22.4719 18.5424 23.2734 17.2243 23.8641C15.9063 24.4547 14.498 24.75 12.9993 24.75Z" fill="#3B82F6"/>
</svg>
