<svg width="20" height="30" viewBox="0 0 20 30" fill="none" xmlns="http://www.w3.org/2000/svg">
<path d="M18.5 12.25V14.75C18.5 17.0706 17.5781 19.2962 15.9372 20.9372C14.2962 22.5781 12.0706 23.5 9.75 23.5M9.75 23.5C7.42936 23.5 5.20376 22.5781 3.56282 20.9372C1.92187 19.2962 1 17.0706 1 14.75V12.25M9.75 23.5V28.5M4.75 28.5H14.75M9.75 1C8.75544 1 7.80161 1.39509 7.09835 2.09835C6.39509 2.80161 6 3.75544 6 4.75V14.75C6 15.7446 6.39509 16.6984 7.09835 17.4017C7.80161 18.1049 8.75544 18.5 9.75 18.5C10.7446 18.5 11.6984 18.1049 12.4017 17.4017C13.1049 16.6984 13.5 15.7446 13.5 14.75V4.75C13.5 3.75544 13.1049 2.80161 12.4017 2.09835C11.6984 1.39509 10.7446 1 9.75 1Z" stroke="#3B82F6" stroke-width="2" stroke-linecap="round" stroke-linejoin="round"/>
</svg>
