<svg width="32" height="32" viewBox="0 0 32 32" fill="none" xmlns="http://www.w3.org/2000/svg">
<path d="M22.6673 28V25.3333C22.6673 23.9188 22.1054 22.5623 21.1052 21.5621C20.105 20.5619 18.7485 20 17.334 20H6.66732C5.25283 20 3.89628 20.5619 2.89608 21.5621C1.89589 22.5623 1.33398 23.9188 1.33398 25.3333V28M30.6673 28V25.3333C30.6664 24.1516 30.2731 23.0037 29.5491 22.0698C28.8252 21.1358 27.8115 20.4688 26.6673 20.1733M21.334 4.17333C22.4812 4.46707 23.498 5.13427 24.2242 6.06975C24.9503 7.00523 25.3444 8.15577 25.3444 9.34C25.3444 10.5242 24.9503 11.6748 24.2242 12.6103C23.498 13.5457 22.4812 14.2129 21.334 14.5067M17.334 9.33333C17.334 12.2789 14.9462 14.6667 12.0007 14.6667C9.05513 14.6667 6.66732 12.2789 6.66732 9.33333C6.66732 6.38781 9.05513 4 12.0007 4C14.9462 4 17.334 6.38781 17.334 9.33333Z" stroke="#3B82F6" stroke-width="2" stroke-linecap="round" stroke-linejoin="round"/>
</svg>
