<svg width="23" height="29" viewBox="0 0 23 29" fill="none" xmlns="http://www.w3.org/2000/svg">
<path d="M13.75 1.25H3.75C3.08696 1.25 2.45107 1.52393 1.98223 2.01152C1.51339 2.49912 1.25 3.16044 1.25 3.85V24.65C1.25 25.3396 1.51339 26.0009 1.98223 26.4885C2.45107 26.9761 3.08696 27.25 3.75 27.25H18.75C19.413 27.25 20.0489 26.9761 20.5178 26.4885C20.9866 26.0009 21.25 25.3396 21.25 24.65V9.05M13.75 1.25L21.25 9.05M13.75 1.25L13.75 9.05H21.25M16.25 15.55H6.25M16.25 20.75H6.25M8.75 10.35H6.25" stroke="#3B82F6" stroke-width="2.5" stroke-linecap="round" stroke-linejoin="round"/>
</svg>
