<svg width="23" height="32" viewBox="0 0 23 32" fill="none" xmlns="http://www.w3.org/2000/svg">
<path d="M13.9167 1H3.58333C2.89819 1 2.24111 1.30729 1.75664 1.85427C1.27217 2.40125 1 3.14312 1 3.91667V27.25C1 28.0235 1.27217 28.7654 1.75664 29.3124C2.24111 29.8594 2.89819 30.1667 3.58333 30.1667H19.0833C19.7685 30.1667 20.4256 29.8594 20.91 29.3124C21.3945 28.7654 21.6667 28.0235 21.6667 27.25V9.75M13.9167 1L21.6667 9.75M13.9167 1L13.9167 9.75H21.6667M16.5 17.0417H6.16667M16.5 22.875H6.16667M8.75 11.2083H6.16667" stroke="#2B2B2B" stroke-width="2" stroke-linecap="round" stroke-linejoin="round"/>
</svg>
