<svg width="28" height="28" viewBox="0 0 28 28" fill="none" xmlns="http://www.w3.org/2000/svg">
<path d="M13.6667 13.6667C11.7875 13.6667 10.1788 12.9976 8.84063 11.6594C7.50243 10.3212 6.83333 8.7125 6.83333 6.83333C6.83333 4.95417 7.50243 3.34549 8.84063 2.00729C10.1788 0.669097 11.7875 0 13.6667 0C15.5458 0 17.1545 0.669097 18.4927 2.00729C19.8309 3.34549 20.5 4.95417 20.5 6.83333C20.5 8.7125 19.8309 10.3212 18.4927 11.6594C17.1545 12.9976 15.5458 13.6667 13.6667 13.6667ZM0 27.3333V22.55C0 21.5819 0.249132 20.6922 0.747396 19.8807C1.24566 19.0693 1.90764 18.45 2.73333 18.0229C4.49861 17.1403 6.29236 16.4783 8.11458 16.037C9.93681 15.5957 11.7875 15.375 13.6667 15.375C15.5458 15.375 17.3965 15.5957 19.2188 16.037C21.041 16.4783 22.8347 17.1403 24.6 18.0229C25.4257 18.45 26.0877 19.0693 26.5859 19.8807C27.0842 20.6922 27.3333 21.5819 27.3333 22.55V27.3333H0ZM3.41667 23.9167H23.9167V22.55C23.9167 22.2368 23.8384 21.9521 23.6818 21.6958C23.5252 21.4396 23.3188 21.2403 23.0625 21.0979C21.525 20.3292 19.9733 19.7526 18.4073 19.3682C16.8413 18.9839 15.2611 18.7917 13.6667 18.7917C12.0722 18.7917 10.492 18.9839 8.92604 19.3682C7.36007 19.7526 5.80833 20.3292 4.27083 21.0979C4.01458 21.2403 3.80816 21.4396 3.65156 21.6958C3.49497 21.9521 3.41667 22.2368 3.41667 22.55V23.9167ZM13.6667 10.25C14.6063 10.25 15.4106 9.91545 16.0797 9.24635C16.7488 8.57726 17.0833 7.77292 17.0833 6.83333C17.0833 5.89375 16.7488 5.08941 16.0797 4.42031C15.4106 3.75122 14.6063 3.41667 13.6667 3.41667C12.7271 3.41667 11.9227 3.75122 11.2536 4.42031C10.5845 5.08941 10.25 5.89375 10.25 6.83333C10.25 7.77292 10.5845 8.57726 11.2536 9.24635C11.9227 9.91545 12.7271 10.25 13.6667 10.25Z" fill="#2B2B2B"/>
</svg>
